<svg xmlns="http://www.w3.org/2000/svg" viewBox="0 0 900 900" fill="none">
  <defs>
    <linearGradient id="bg" x1="120" y1="80" x2="760" y2="760" gradientUnits="userSpaceOnUse">
      <stop stop-color="#E8FCEB"/>
      <stop offset="1" stop-color="#D4F5DE"/>
    </linearGradient>
    <linearGradient id="shirt" x1="450" y1="380" x2="450" y2="700" gradientUnits="userSpaceOnUse">
      <stop stop-color="#2FA86D"/>
      <stop offset="1" stop-color="#1E8A57"/>
    </linearGradient>
    <linearGradient id="skin" x1="450" y1="210" x2="450" y2="340" gradientUnits="userSpaceOnUse">
      <stop stop-color="#F5C7A3"/>
      <stop offset="1" stop-color="#E8B58D"/>
    </linearGradient>
  </defs>

  <circle cx="450" cy="450" r="360" fill="url(#bg)"/>

  <rect x="230" y="130" width="440" height="280" rx="20" fill="#ffffff" stroke="#BFE8C9" stroke-width="10"/>
  <rect x="250" y="150" width="400" height="240" rx="12" fill="#F3FFF7"/>
  <circle cx="290" cy="190" r="10" fill="#9BD7AF"/>
  <rect x="320" y="182" width="220" height="16" rx="8" fill="#A8E0B8"/>
  <rect x="290" y="230" width="320" height="12" rx="6" fill="#CDEFD8"/>
  <rect x="290" y="260" width="280" height="12" rx="6" fill="#CDEFD8"/>
  <rect x="290" y="290" width="300" height="12" rx="6" fill="#CDEFD8"/>

  <ellipse cx="450" cy="710" rx="190" ry="36" fill="#CFEFDC"/>

  <ellipse cx="450" cy="315" rx="78" ry="94" fill="url(#skin)"/>
  <path d="M372 300c0-55 35-100 78-100s78 45 78 100v22c0 8-7 15-15 15H387c-8 0-15-7-15-15v-22z" fill="#1F2937"/>
  <path d="M381 301c0-41 31-73 69-73s69 32 69 73v15H381v-15z" fill="#111827"/>
  <ellipse cx="422" cy="318" rx="7" ry="8" fill="#1F2937"/>
  <ellipse cx="478" cy="318" rx="7" ry="8" fill="#1F2937"/>
  <path d="M423 354c18 17 36 17 54 0" stroke="#A8552A" stroke-width="6" stroke-linecap="round"/>

  <rect x="404" y="386" width="92" height="36" rx="18" fill="url(#skin)"/>

  <path d="M320 690c12-130 62-230 130-268h0c68 38 118 138 130 268H320z" fill="url(#shirt)"/>
  <rect x="424" y="470" width="52" height="220" rx="18" fill="#136F43"/>

  <path d="M315 520c17-38 52-64 92-64h16v58h-10c-18 0-34 10-41 26l-22 50c-7 16-27 24-43 16-16-7-24-27-16-43l24-43z" fill="url(#shirt)"/>
  <path d="M585 520c-17-38-52-64-92-64h-16v58h10c18 0 34 10 41 26l22 50c7 16 27 24 43 16 16-7 24-27 16-43l-24-43z" fill="url(#shirt)"/>

  <circle cx="333" cy="605" r="30" fill="url(#skin)"/>
  <circle cx="567" cy="605" r="30" fill="url(#skin)"/>

  <rect x="380" y="510" width="140" height="90" rx="14" fill="#ffffff" stroke="#BFE8C9" stroke-width="6"/>
  <rect x="396" y="528" width="108" height="10" rx="5" fill="#B6E7C5"/>
  <rect x="396" y="548" width="88" height="10" rx="5" fill="#D3F1DC"/>
  <rect x="396" y="568" width="98" height="10" rx="5" fill="#D3F1DC"/>

  <path d="M406 420h88l-22 28h-44l-22-28z" fill="#F8FBFA"/>
  <circle cx="450" cy="420" r="6" fill="#2FA86D"/>
</svg>
